<!-- by TradingView --><svg width="18" height="18" fill="none" xmlns="http://www.w3.org/2000/svg"><path fill="#16486F" d="M0 0h18v18H0z"/><path d="M9 18A9 9 0 109 0a9 9 0 000 18z" fill="#16486F"/><path d="M4.731 6.238c-.02.113-.015.195.047.257-.077.134-.14.236-.196.35.057-.114.119-.216.196-.33.175.216.72.216 1.46-.02.088-.026.088.17.088.17 0 .113-.02.262-.962.396-.257.04-.633.02-.802-.175a.463.463 0 01-.067-.263c0-.02 0-.04.02-.087a.406.406 0 01.047-.108c.02-.067.061-.108.103-.175a.702.702 0 01-.103.175.473.473 0 01.103-.175l.066-.015zm.129-.278a.733.733 0 01.113-.144l-.067.088a.5.5 0 00-.01.01l.077-.098-.067.088a.675.675 0 00-.046.051v.005zm0 0l-.082.118a.217.217 0 00-.01.01 3.66 3.66 0 00-.052.083l.144-.21zm.463-.524l.195-.165a.69.69 0 00-.128.262c-.026.067-.026.134.02.175l-.015.01c.144.165.617.114 1.214-.138.194-.082.383-.177.565-.283.067-.026.155.087.175.103.02.025.041.092 0 .133a3.463 3.463 0 01-.72.35c-.75.319-1.352.37-1.517.165l-.005.01c-.026-.067-.046-.108-.026-.196 0-.025 0-.046.026-.066a.716.716 0 01.062-.072c-.031.029-.06.06-.088.092 0-.02.026-.061.026-.087.041-.088.087-.154.154-.237l.041-.036c.067-.092.165-.175.257-.272l.263-.216a.427.427 0 01.061-.052 6.649 6.649 0 00-.02.02c.062-.05.123-.092.19-.138h.01l.036-.03c.312-.204.643-.377.988-.515a1.33 1.33 0 01.17-.087l-.093.036c-.054.023-.109.046-.165.066-.087.026-.087.026-.257.114-.092.04-.092.04-.241.128l-.222.134-.18.128c1.425-.704 1.327-.673 1.224-.632a4.52 4.52 0 00-1.671.967 1.724 1.724 0 00-.134.144c-.067.066-.139.123-.195.185zM4.089 10.49c0 .02.005.036.015.052a.35.35 0 00.087.154l-.118-.36c0 .144.041.267.118.36a2.278 2.278 0 01-.113-.411c.396.545 1.877.41 3.77-.391 2.417-1.029 4.624-2.767 4.927-3.903.067-.283.02-.478-.129-.632.103.108.216.241.324.35.134.153.155.349.088.611-.309 1.152-2.551 2.916-5.035 3.96-2.16.94-3.78.982-3.94.21-.036-.123-.072-.288-.113-.4.02.06.047.128.088.195l.015.046a.49.49 0 000 .005v-.005l.016.16zm3.528-6.448l.03-.01c.654-.175 1.07-.087.983.283-.02.128-.108.257-.242.39-.103.047-.345 0-.39-.04.107-.134.174-.242.195-.33.067-.288-.247-.36-.756-.231l-.02.01.2-.072zm-.036.016l.087-.026a2.718 2.718 0 00-.051.01l-.036.016zM3.965 9.724v.015c-.062-.061-.082-.143-.087-.241a.664.664 0 010-.134 2.17 2.17 0 010 .124.607.607 0 010-.129 4.124 4.124 0 01-.02-.34c0 .134.045.217.087.31l.01.205c-.01-.072-.01-.144-.01-.206 1.46 1.543 8.023-2.468 8.084-4.165.02-.308-.154-.411-.241-.478l.174.108.222.154c.174.154.236.37.174.653-.288 1.09-2.417 2.767-4.752 3.749-1.851.792-3.276.9-3.64.375zm-.01-1.66l.03-.134c-.04.174-.02.329.068.41v.011a.506.506 0 00.174.124c.067.087.021.308.021.308-.02.062-.041.154-.087.129-.216-.108-.304-.283-.283-.545-.021.13.01.263.087.37v-.01a.504.504 0 01-.067-.34l.01-.051a.241.241 0 00-.01.051l.047-.308.04-.17v-.041l-.03.195zm.319-.536c-.04.088-.07.179-.088.273-.067-.087-.087-.195-.067-.33.044-.164.102-.324.175-.477a.478.478 0 00.041.39l-.01.036c.273.36 1.265.268 2.54-.272 1.636-.72 3.138-1.897 3.333-2.638.067-.283-.02-.457-.257-.545.041-.02.041-.02.17.02.087.026.154.047.195.047.283.108.396.308.309.612-.221.823-1.851 2.108-3.641 2.874-1.415.586-2.505.694-2.788.283l.088-.273zm3.363 6.274a1.697 1.697 0 01-.643-.077c-.128-.067-.308-.129-.411-.196.262.108.617.139 1.013.098 2.299-.226 6.326-2.638 6.547-4.217l-.02.067a2.225 2.225 0 00-.047.391c0 .026 0 .046-.02.067-.257.936-2.109 2.396-4.14 3.265-.719.334-1.49.54-2.279.607v-.005zm.257-.895l.036-.052-.036.052c.33-.093.684-.21 1.065-.36.237-.062.324.087.324.087.02.026.02.114-.108.175-.55.216-1.054.37-1.492.463l-.015.015.01-.015c-.771.16-1.357.139-1.666-.072-.103-.087-.257-.195-.37-.283.355.304 1.162.299 2.252-.01zm-2.725-.463c-.093-.113-.201-.22-.268-.329.088.103.221.257.309.37a.051.051 0 00-.047-.046l.006.005zm3.46-8.566c.13 0 .31-.02.438-.02.458 0 .674.174.586.524-.108.411-.694 1.002-1.46 1.522-.155.066-.309-.129-.257-.216 0-.02.02-.02.02-.02.674-.464 1.173-.962 1.286-1.333.087-.35-.196-.498-.7-.457h.088zm2.613.504c.263.128.37.35.288.673-.262.977-2.18 2.484-4.273 3.378a9.9 9.9 0 01-1.132.412c-.2.02-.221-.237-.134-.37.026-.042.047-.042.067-.067.33-.088.674-.216 1.044-.37 1.986-.849 3.796-2.284 4.032-3.199.088-.329-.04-.545-.324-.653.129.062.304.129.432.196zm2.268 2.16l.067.102c.067.175.067.175.067.262v.02c-.067-.02-.2-.282-.221-.39a.462.462 0 00-.087-.308l.175.308v.005zm.463 1.151a.964.964 0 01-.025.39c-.263.957-1.898 2.376-3.878 3.394-.221.093-.35-.061-.309-.216a.22.22 0 01.113-.128c2.006-1.044 3.683-2.484 3.945-3.466a.822.822 0 000-.457c.062.174.129.35.154.483zm.15.915v.17c0 .087 0 .154-.021.262-.154.592-.874 1.353-1.852 2.093-.154.108-.241-.041-.22-.154a.396.396 0 01.107-.175c1.029-.761 1.764-1.543 1.919-2.155.02-.108.046-.216.02-.324l.046.283zm-9.026-2.55c-.021-.067-.042-.108-.021-.196-.02.088 0 .129.026.196h-.005zm-.546.823a.468.468 0 01-.061-.258c0 .108 0 .175.067.258H4.55zM12.4 8.562a.299.299 0 01-.047.283 14.33 14.33 0 01-3.857 2.375c-2.201.916-3.857.977-4.011.196-.016-.067 0-.02.025-.041 0 .02 0 .128.088.257-.02-.041-.041-.062-.067-.103-.02-.026-.02-.052-.041-.072-.047-.062-.067-.154-.108-.216.411.545 1.939.437 3.898-.411 1.4-.592 2.7-1.393 3.857-2.376.175-.087.242.041.263.108zM6.89 12.547c.021.046.042.134-.046.154-.782.129-1.347.067-1.61-.216-.087-.113-.216-.262-.308-.37.242.303.833.39 1.682.257.154 0 .257.134.282.175zm6.866-1.589c.062-.128.129-.329.175-.457-.262.848-1.939 2.16-3.77 2.94-1.131.479-2.072.654-2.571.5.128.046.324.087.478.113 1.394.216 4.922-1.528 5.688-3.096zm-1.131 1.568c0 .021-.052.088-.134.155a7.569 7.569 0 01-1.81 1.064c-.566.242-1.065.37-1.44.396h-.54c.432.02 1.064-.134 1.83-.437a8.496 8.496 0 002.048-1.219c.02 0 .02-.025.04-.025 0 0 0 .025.026.025 0 0 0 .02-.025.041h.005zM4.125 7.384c0-.02.02-.061.02-.087l.175-.458c0 .067-.02.114-.046.175-.062.108-.103.242-.155.37h.006z" fill="#fff"/></svg>