<!-- by TradingView --><svg width="18" height="18" fill="none" xmlns="http://www.w3.org/2000/svg"><path fill="#282E5B" d="M0 0h18v18H0z"/><path d="M10.18 6.385c0-1.58-.76-2.94-1.345-3.385 0 0-.04-.025-.04.04-.05 3.05-1.595 3.885-2.45 4.995-1.97 2.575-.14 5.39 1.72 5.91 1.045.29-.24-.52-.4-2.22-.2-2.065 2.515-3.635 2.515-5.34z" fill="#fff"/><path d="M11.2 7.43c-.01-.01-.025-.01-.04 0l-.01.005c-.035.38-.45 1.205-.98 1.96-1.79 2.555-.77 3.79-.195 4.45.335.39 0 0 .835-.4a3.56 3.56 0 001.79-2.725 3.829 3.829 0 00-1.4-3.29z" fill="#059BDC"/></svg>