<svg width="18" height="18" fill="none" xmlns="http://www.w3.org/2000/svg"><path d="M0 9a9 9 0 1118 0A9 9 0 010 9z" fill="url(#paint0_linear)"/><path fill-rule="evenodd" clip-rule="evenodd" d="M10.922 10.613l1.902 1.605.002.002.019-.027a4.98 4.98 0 00.47-.677l.008-.011-2.152-1.25a2.562 2.562 0 01-.249.358z" fill="url(#paint1_linear)"/><path fill-rule="evenodd" clip-rule="evenodd" d="M11.505 9.022h2.489l-.005.059a5.053 5.053 0 01-.064.742l-.006.07-.019.068c-.046.243-.11.483-.192.717l-.014.052-2.338-.855c.1-.273.15-.562.15-.853h-.001z" fill="url(#paint2_linear)"/><path fill-rule="evenodd" clip-rule="evenodd" d="M13.336 6.512c.134.234.249.479.343.732l.02.045.015.05c.083.24.149.485.195.734l.016.058-2.45.433a2.505 2.505 0 00-.541-1.176l1.899-1.602.02.024c.175.212.332.44.47.678l.008.01.005.014z" fill="url(#paint3_linear)"/><path fill-rule="evenodd" clip-rule="evenodd" d="M9.459 6.528a2.495 2.495 0 00-.435-.04V4.005c.286 0 .571.024.853.074h.012l.012.004c.276.05.546.123.809.218l.016.005.016.007c.26.096.512.215.753.354l.012.006.012.008c.237.138.462.296.673.472l.025.02-1.593 1.908A2.504 2.504 0 009.46 6.53z" fill="url(#paint4_linear)"/><path d="M9 4v2.486a2.514 2.514 0 101.923 4.132l1.902 1.602A4.978 4.978 0 019 14 5 5 0 119 4zm2.358 5.87l2.335.86c-.101.273-.226.537-.373.788l-2.149-1.252c.074-.126.136-.259.188-.397zm2.567-1.738c.05.282.075.572.075.868h-2.487c0-.149-.013-.294-.038-.436l2.45-.432zM12.23 5.183c.222.189.427.396.614.619l-1.912 1.59a2.53 2.53 0 00-.308-.31l1.606-1.899z" fill="#fff"/><defs><linearGradient id="paint0_linear" x1="1.678" y1="3.981" x2="15.653" y2="14.942" gradientUnits="userSpaceOnUse"><stop stop-color="#4CCB88"/><stop offset="1" stop-color="#30C7B4"/></linearGradient><linearGradient id="paint1_linear" x1="12.472" y1="10.908" x2="11.903" y2="11.752" gradientUnits="userSpaceOnUse"><stop stop-color="#39C9B1"/><stop offset="1" stop-color="#FBFFFF" stop-opacity=".15"/></linearGradient><linearGradient id="paint2_linear" x1="12.762" y1="9.098" x2="12.676" y2="10.73" gradientUnits="userSpaceOnUse"><stop offset=".001" stop-color="#35C8AC"/><stop offset="1" stop-color="#fff" stop-opacity=".08"/></linearGradient><linearGradient id="paint3_linear" x1="11.897" y1="6.791" x2="12.818" y2="8.445" gradientUnits="userSpaceOnUse"><stop stop-color="#3CC8A0"/><stop offset="1" stop-color="#fff" stop-opacity=".06"/></linearGradient><linearGradient id="paint4_linear" x1="9.024" y1="4.632" x2="11.694" y2="6.663" gradientUnits="userSpaceOnUse"><stop stop-color="#45C990"/><stop offset="1" stop-color="#fff" stop-opacity=".06"/></linearGradient></defs></svg>