<!-- by TradingView --><svg width="18" height="18" fill="none" xmlns="http://www.w3.org/2000/svg"><path fill="#602A52" d="M0 0h18v18H0z"/><path d="M10.935 8.655a2.082 2.082 0 00-1.522-1.38c-.074.144-.17.274-.284.385.749.06 1.383.657 1.493 1.44.124.478.296 1.042.744 1.28.536.29 1.242.65 1.517.79L9.12 13.45v-1.564c0-.25.568-.545.791-.645.39-.221.683-.506.9-.91a2.221 2.221 0 01-.26-.426c-.141.413-.43.748-.801.946l-.038.02c-.095.04-.915.425-.915 1.01v1.565L5.1 11.16c.242-.15.934-.58 1.507-.765.223-.07.697.234.967.464.296.26.63.475 1.01.556.08-.14.18-.27.294-.386-.644-.044-.95-.513-1.489-.83-.364-.215-.668-.285-.9-.21-.493.16-1.043.47-1.375.67l3.683-6.855v3c0 .11-.152.385-.659.62C7.37 7.89 6.85 8.683 6.982 9.66c.16.041.314.102.46.18a1.748 1.748 0 01-.071-.495c0-.672.367-1.229.924-1.515.095-.04.825-.435.825-1.025v-3l3.806 6.91-1.375-.71c-.444-.242-.466-.91-.616-1.35zm2.517 2.176L9.356 3.22A.416.416 0 009.001 3a.415.415 0 00-.36.22l-4.09 7.61a.437.437 0 00.146.57l4.095 2.54c.128.08.294.08.422 0l4.09-2.54a.437.437 0 00.148-.565v-.005z" fill="#fff"/></svg>