<svg width="18" height="18" fill="none" xmlns="http://www.w3.org/2000/svg"><path fill="#0090FF" d="M0 0h18v18H0z"/><path fill-rule="evenodd" clip-rule="evenodd" d="M9.628 8.142l-.215 1.172 2.046.293-.144.55-2.01-.293c-.143.476-.215.989-.395 1.428-.18.513-.359 1.026-.574 1.502-.287.623-.79 1.063-1.472 1.173-.395.073-.826.036-1.149-.22-.107-.073-.215-.22-.215-.33 0-.146.072-.33.18-.403.071-.036.25 0 .358.037.108.11.216.256.288.403.215.293.502.33.79.11.322-.293.502-.696.61-1.1.215-.879.43-1.721.61-2.6v-.147l-1.903-.293.072-.55 1.974.294.252-1.136-2.046-.33.071-.586 2.118.293c.072-.22.108-.403.18-.586.18-.66.359-1.319.79-1.905.43-.586.933-.952 1.687-.915.323 0 .646.11.861.366.036.036.108.11.108.183 0 .147 0 .33-.108.44-.143.11-.323.073-.466-.074-.108-.11-.18-.22-.287-.33-.216-.292-.539-.33-.79-.073-.18.184-.36.44-.467.696-.251.77-.43 1.576-.682 2.382l1.974.293-.143.55-1.903-.294z" fill="#fff"/></svg>