<!-- by TradingView --><svg width="18" height="18" fill="none" xmlns="http://www.w3.org/2000/svg"><path d="M0 9a9 9 0 1118 0A9 9 0 010 9z" fill="#F0F3FA"/><path d="M5.122 9.007L6.032 4h1.79c.87 0 1.238.717 1.163 1.112l-.162.817c-1.542.278-3.11 2.168-3.701 3.078z" fill="url(#paint0_linear)"/><path d="M6.297 7.057c-2.062 2.032-1.211 4.225-.528 5.068.069-2.849 2.582-3.54 3.83-3.529a70.47 70.47 0 011.72 0c.87.008 1.374-.753 1.448-1.205L13 5.885a175.4 175.4 0 00-3.646 0c-1.493.017-2.66.789-3.057 1.172z" fill="url(#paint1_linear)"/><path d="M9.724 14c-2.273.009-3.583-1.251-3.953-1.874.27-2.193 1.951-2.988 2.757-3.119-.339.271-.39.703-.374.885.137 1.213.822 1.311 2.33 1.333 1.206.018 1.566.946 1.508 1.245L11.78 14H9.724z" fill="url(#paint2_linear)"/><defs><linearGradient id="paint0_linear" x1="8.766" y1="4.392" x2="5.737" y2="9.082" gradientUnits="userSpaceOnUse"><stop stop-color="#EF6F27"/><stop offset="1" stop-color="#F39721"/></linearGradient><linearGradient id="paint1_linear" x1="13" y1="6.969" x2="5.478" y2="11.399" gradientUnits="userSpaceOnUse"><stop stop-color="#4CC4EB"/><stop offset="1" stop-color="#325CA6"/></linearGradient><linearGradient id="paint2_linear" x1="6.762" y1="10.033" x2="11.355" y2="14.01" gradientUnits="userSpaceOnUse"><stop stop-color="#ED5528"/><stop offset="1" stop-color="#F18B23"/></linearGradient></defs></svg>