<!-- by TradingView --><svg width="18" height="18" fill="none" xmlns="http://www.w3.org/2000/svg"><path d="M0 9a9 9 0 1118 0A9 9 0 010 9z" fill="#F0F3FA"/><path d="M6.464 8.1c0-.788-.208-1.382-.312-1.58 2.274.285 2.94 1.38 2.971 2.127.026.597-.559.99-.756 1.058l-1.02-1.71s.546 1.39.615 1.835c-1.097-.095-1.498-.746-1.498-1.73zM10.994 7.985c-1.405.083-1.489.86-1.33 1.454 0 0 .267.272.67.289a.933.933 0 00.833-.466c.261-.507.677-1.002.833-1.104-.358-.139-.82-.173-1.006-.173z" fill="#46A348"/><path d="M7.064 7.49c.806 1.673 1.285 4.018 1.424 4.981.442-2.234 1.779-3.665 2.393-4.101-1.031.5-1.838 1.94-2.112 2.597C8.164 8.975 7.38 7.82 7.064 7.491z" fill="#664C33"/><path fill-rule="evenodd" clip-rule="evenodd" d="M9 13a4 4 0 100-8 4 4 0 000 8zm0 1A5 5 0 109 4a5 5 0 000 10z" fill="#46A348"/></svg>