<!-- by TradingView --><svg width="18" height="18" viewBox="0 0 18 18" fill="none" xmlns="http://www.w3.org/2000/svg"><path fill="#7023EB" d="M0 0h18v18H0z"/><path fill-rule="evenodd" clip-rule="evenodd" d="M6.97 7C5.885 7 5 7.893 5 8.984 5 10.637 3.66 12 2 12v-1c1.1 0 2-.907 2-2.016C4 7.35 5.325 6 6.97 6H9.5a3 3 0 013 3v.5A2.5 2.5 0 0110 12v-1a1.5 1.5 0 001.5-1.5V9a2 2 0 00-2-2H6.97z" fill="#fff"/><path fill-rule="evenodd" clip-rule="evenodd" d="M12 9a3 3 0 013-3v1a2 2 0 100 4v1a3 3 0 01-3-3zM8.024 12V9h1v3h-1z" fill="#fff"/></svg>
