<!-- by TradingView --><svg width="18" height="18" fill="none" xmlns="http://www.w3.org/2000/svg"><path fill="url(#paint0_linear)" d="M0 0h18v18H0z"/><path fill-rule="evenodd" clip-rule="evenodd" d="M6.523 4l6.034.253L15 9.346 11.554 14l-6.067-.364L3 8.117 6.523 4z" fill="#3B3B3D"/><path fill-rule="evenodd" clip-rule="evenodd" d="M6.523 4l6.034.253L15 9.346 11.554 14l-6.067-.364L3 8.117 6.523 4zm4.424 2.936L6.574 8.728l3.739 2.712.634-4.504zm-.506-.899L6.946 4.625l-.734 2.969 4.229-1.557zm-.886 6.086L5.757 9.578l.092 3.448 3.706-.903zm4.838-2.789L11.805 6.87l-.683 4.739 3.271-2.275zm-3.948 3.343l-3.203.785 3.767.227-.564-1.012zm3.443-2.225l-2.804 1.96.557 1.022 2.247-2.982zM12.56 4.965l-.544 1.049 2.027 1.933-1.483-2.982zm-.678-.502l-3.56-.136 2.936 1.205.624-1.07zm-5.88.485L3.51 7.902l1.667.33.827-3.284zm-.926 3.864L3.402 8.48l1.748 3.863-.073-3.53z" fill="url(#paint1_linear)"/><defs><linearGradient id="paint0_linear" x1="3.349" y1="3.122" x2="21.904" y2="24.434" gradientUnits="userSpaceOnUse"><stop stop-color="#1A1E21"/><stop offset="1" stop-color="#06060A"/></linearGradient><linearGradient id="paint1_linear" x1="14.063" y1="1.679" x2="2.53" y2="11.665" gradientUnits="userSpaceOnUse"><stop offset=".081" stop-color="#3E3E40"/><stop offset=".294" stop-color="#5B5B5D"/><stop offset=".737" stop-color="#9D9D9F"/><stop offset=".888" stop-color="#606061"/></linearGradient></defs></svg>