<svg width="18" height="18" fill="none" xmlns="http://www.w3.org/2000/svg"><path d="M0 9a9 9 0 1118 0A9 9 0 010 9z" fill="url(#paint0_linear)"/><path d="M7.88 7.997c.535.007.673-.235.685-.497 0-.503-.488-.483-.686-.503-.899-.005-2.67-.009-3.107 0-.547.01-.772.019-.772.503 0 .426.394.493.552.497.882.005 2.792-.007 3.327 0z" fill="#E5E5E5"/><path d="M9.319 4.824c.158-.511-.034-.713-.282-.798-.482-.143-.601.33-.677.514-.26.86-.626 2.03-.742 2.452-.146.527-.202.745.263.883.409.12.619-.233.667-.383.255-.844.613-2.156.771-2.668z" fill="#EFEFEF"/><path d="M9.494 4.536c-.15-.514-.422-.575-.676-.509-.481.148-.318.608-.28.803.26.861.603 2.037.74 2.453.171.52.245.732.708.59.408-.126.387-.537.344-.689-.255-.844-.684-2.134-.836-2.648z" fill="#ED1650"/><path d="M13.294 8.002c.542.008.695-.24.706-.502 0-.5-.474-.479-.674-.5-.909-.009-2.837 0-3.28 0-.281 0-.665.015-.665.5 0 .39.414.497.573.502.892.008 2.8-.009 3.34 0z" fill="#0A66EA"/><path d="M5.038 7.385c-.5-.395-.757-.285-.908-.065-.268.44.2.776.375.937.84.658 1.98 1.564 2.395 1.875.518.388.734.544.992.122.227-.372-.094-.75-.24-.868-.824-.645-2.116-1.607-2.614-2.001z" fill="#CECECE"/><path d="M13.034 7.293c.499-.395.757-.284.907-.064.268.439-.2.775-.375.937-.84.658-1.98 1.564-2.395 1.875-.518.388-.733.544-.991.121-.227-.372.094-.75.239-.867.825-.645 2.116-1.607 2.615-2.002z" fill="#6D6D6D"/><path d="M7.838 10.474c.248-.586.074-.806-.178-.892-.495-.142-.695.399-.805.61-.411.984-.983 2.323-1.173 2.805-.12.304-.33.852.145.989.42.12.67-.21.774-.46.403-.967.988-2.467 1.237-3.052z" fill="#BFBFBF"/><path d="M10.194 10.474c-.248-.586-.074-.806.178-.892.495-.142.695.399.805.61.412.984.984 2.323 1.173 2.805.12.304.33.852-.145.989-.419.12-.669-.21-.774-.46-.403-.967-.988-2.467-1.237-3.052z" fill="#7C7C7C"/><path d="M9.014 11.563c.476-.422.412-.695.222-.882-.386-.34-.799.063-.988.206-.795.713-1.886 1.677-2.264 2.032-.238.223-.664.627-.293.955.327.288.695.097.896-.084.78-.7 1.951-1.804 2.427-2.226z" fill="#A8A8A8"/><path d="M8.953 11.495c-.497-.433-.436-.707-.243-.893.392-.337.824.075 1.022.223.83.73 1.97 1.718 2.366 2.081.248.228.694.643.317.967-.332.286-.714.088-.925-.098-.814-.717-2.04-1.847-2.537-2.28z" fill="#888"/><defs><linearGradient id="paint0_linear" x1="3.349" y1="3.122" x2="21.904" y2="24.434" gradientUnits="userSpaceOnUse"><stop stop-color="#1A1E21"/><stop offset="1" stop-color="#06060A"/></linearGradient></defs></svg>