<!-- by TradingView --><svg width="18" height="18" fill="none" xmlns="http://www.w3.org/2000/svg"><path fill="#D0B47A" d="M0 0h18v18H0z"/><path d="M12.873 7.21l-.736-3.296-1.44 2.268a7.252 7.252 0 00-3.394 0l-1.44-2.268-.736 3.296c-.786.633-1.27 1.461-1.27 2.366C3.857 11.561 6.161 13 9 13s5.143-1.439 5.143-3.429c0-.9-.484-1.728-1.27-2.36zM6.14 9H5.8l.833-1h.612L6.141 9zm2.828 2.078L7.55 8.573l.35-.2.385.627h1.421l.4-.632.345.205-1.476 2.505H8.97zM11.86 9l-1.105-1h.617l.833 1h-.345zm-2.88 1.275l-.53-.935h1.08l-.55.935z" fill="#fff"/></svg>