<!-- by TradingView --><svg width="18" height="18" fill="none" xmlns="http://www.w3.org/2000/svg"><path fill="#F0F3FA" d="M0 0h18v18H0z"/><path d="M7.38 12.944C4.5 12.493 4.035 9.9 4.19 8.66l3.067 2.03c-.078.747.059 1.82.124 2.255z" fill="#E3E3E3"/><path d="M7.381 12.945c-.233-.686-.188-1.766-.136-2.22l5.857-3.39c.156.81-.246 2.234-.467 2.844l-5.254 2.766z" fill="#C4D0D8"/><path d="M4.017 8.457V7.37a96.929 96.929 0 012.911 2.085c.245.192.528.08.639 0 .77-.742 4.07-2.59 5.623-3.42l-.08 1.331L7.22 10.8 4.217 8.777a.364.364 0 01-.2-.32z" fill="#9D0A20"/><path d="M9.72 4.03c-2.437.508-4.73 2.217-5.572 3-.268.235-.112.457 0 .536.816.56 2.517 1.73 2.77 1.902.254.172.532.072.645 0 2.106-1.587 5.271-3.205 5.554-3.375.227-.136.12-.382 0-.476-1.168-.916-2.465-1.44-2.967-1.587a.762.762 0 00-.43 0z" fill="#E3293F"/><path d="M8.375 11.997v-1.719c0-.582.87-1.903 2.884-1.903C13.2 8.375 14 9.767 14 10.364v1.633c0 .64-.742 2.014-2.741 2.003-2-.01-2.884-1.35-2.884-2.003z" fill="#24292D"/><ellipse cx="11.188" cy="10.406" rx="2.187" ry="1.719" fill="#DCE5EA"/><ellipse cx="11.194" cy="10.54" rx="1.418" ry=".827" fill="#65A951"/><path d="M12.747 10.12c-.253-.593-1.105-.795-1.499-.822-1.2 0-1.712.924-1.609 1.192.085.22.284.313.512.22.312-.128.841-.378 1.097-.44.236-.05.792-.12 1.134 0 .341.12.386-.05.365-.15z" fill="#FB8527"/><path d="M6.205 6.185c-.057-.215-.259-.271-.38-.221a.296.296 0 00-.18.387c.214.639.4 1.678.465 2.118.025.166.159.367.37.339.212-.028.24-.227.222-.34-.19-1.176-.426-2.014-.497-2.283zM11.435 4.872c-.043-.142-.176-.213-.296-.17-.172.063-.157.266-.131.325.12.446.217 1.014.267 1.303.019.11.076.268.258.247.181-.02.188-.2.181-.275a10.87 10.87 0 00-.28-1.43zM7.916 5.294c-.057-.28-.296-.342-.417-.276-.227.123-.158.364-.124.481.214.833.4 2.189.465 2.762.025.217.157.458.369.421.211-.036.241-.275.223-.42-.189-1.536-.445-2.617-.516-2.968zM9.647 4.619c-.057-.246-.278-.308-.4-.25-.226.108-.176.327-.142.43.215.73.4 1.919.466 2.422.025.19.156.4.368.369.212-.032.242-.241.224-.37-.19-1.346-.445-2.294-.516-2.601z" fill="#F14F65"/></svg>