<!-- by TradingView --><svg width="18" height="18" fill="none" xmlns="http://www.w3.org/2000/svg"><path d="M0 9a9 9 0 1118 0A9 9 0 010 9z" fill="#F7991C"/><path d="M15.305 10.4c-.014-.03-.002-.054-.002-.078.048-.52-.266-.982-.74-1.09-.31-.069-.587.024-.824.24-.288.26-.562.539-.833.82-.528.55-1.029 1.342-1.764 1.611-.875.318-1.832-.18-2.165-1.042-.04-.104-.036-.126.043-.197.183-.171.37-.339.553-.51l.017-.014c.022-.015.04-.051.068-.036.028.015.01.048.014.072.022.461.359.87.81.934a.953.953 0 001.033-.68c.16-.539-.107-1.075-.627-1.252-.613-.209-1.055.362-1.459.743-.133.126-.265.255-.4.377a.32.32 0 00-.1.183c-.167.902-.978 1.614-1.888 1.506-.65-.059-1.222-.514-1.46-1.135a.213.213 0 01-.013-.039.109.109 0 01-.007-.07.104.104 0 01.038-.058l.192-.171c.132-.123.265-.246.4-.365.023-.021.046-.057.074-.045.028.012.017.054.02.084.013.45.319.86.75.96.492.112.979-.219 1.107-.712.17-.662-.325-1.315-.968-1.282-.445.014-.772.43-1.076.716-.183.17-.338.342-.522.513a.232.232 0 00-.076.177v1.292c0 .123-.042.15-.158.147a.748.748 0 01-.573-.278c-.056-.069-.068-.069-.144-.024-.28.165-.576.255-.895.243-.961-.036-1.743-.877-1.73-1.866 0-.847.592-1.674 1.423-1.818.753-.127 1.447.206 1.837.871.014.033.038.06.068.078.02-.014.16-.033.172-.057 0-1 .004-2 .001-3.001 0-.132.023-.147.15-.147.187 0 .368.074.507.206.14.133.321.293.342.49 0-.048.006.048 0 0v1.72c.003.072.04.101.087.048a.82.82 0 01.37-.166 1.731 1.731 0 011.724.826c.02.03.037.063.073.07.02.002.243-.067.246-.1V6.857c0-.435.347-.76.75-.84A.51.51 0 019.887 6c.06.003.085.029.1.089.008.047.012.095.01.144v2.213c.006.039.017.05.054.036l.144-.066c.914-.388 1.73.182 2.052 1.092l.017.054c.028.077.037.08.096.024.473-.444.938-1.025 1.583-1.19a1.671 1.671 0 011.22.165c.374.208.666.553.82.97a.18.18 0 01-.039.207c-.194.204-.384.41-.578.617a.176.176 0 01-.06.045z" fill="#191C31"/><path d="M14.54 11.236a.079.079 0 01-.008.033.071.071 0 01-.022.024c-.206.22-.412.44-.615.663a.112.112 0 01-.138.033c-.486-.193-.83-.543-1.031-1.051-.031-.075-.025-.1.031-.15.2-.187.404-.374.604-.558a.09.09 0 01.048-.03c.02.021.014.048.017.073.01.141.044.28.099.409a.929.929 0 00.649.539.662.662 0 00.19.018c.055-.006.115-.003.177-.003z" fill="#191C31"/><path d="M4.704 10.098c.015.533-.414.997-.937 1.003a.916.916 0 01-.667-.288 1.032 1.032 0 01-.281-.703c-.008-.545.395-1.012.948-1.024.511-.012.94.43.937 1.012z" fill="#FF9C00"/></svg>