<!-- by TradingView --><svg width="18" height="18" fill="none" xmlns="http://www.w3.org/2000/svg"><path fill="#021041" d="M0 0h18v18H0z"/><circle cx="9" cy="6.344" fill="#88BCF5" r="2.344"/><circle cx="9" cy="11.657" fill="#3174ED" r="2.344"/><circle cx="11.656" cy="8.939" r="2.344" transform="rotate(90 11.656 8.94)" fill="#5894F4"/><circle cx="6.344" cy="9.062" r="2.344" transform="rotate(90 6.344 9.062)" fill="#205FEC"/><path fill-rule="evenodd" clip-rule="evenodd" d="M8.654 8.663a2.346 2.346 0 01-1.964-1.92c1 .149 1.794.928 1.964 1.92z" fill="#134AF3"/><path fill-rule="evenodd" clip-rule="evenodd" d="M11.328 6.618a2.345 2.345 0 01-2 2.047c.123-1.058.95-1.9 2-2.047z" fill="#3372F1"/><path fill-rule="evenodd" clip-rule="evenodd" d="M11.31 11.258a2.346 2.346 0 01-1.964-1.92c1 .148 1.794.927 1.964 1.92z" fill="#1449EF"/><path fill-rule="evenodd" clip-rule="evenodd" d="M8.672 9.335a2.345 2.345 0 01-2 2.049 2.345 2.345 0 012-2.049z" fill="#0930EA"/></svg>