<!-- by TradingView --><svg width="18" height="18" fill="none" xmlns="http://www.w3.org/2000/svg"><path d="M0 9a9 9 0 1118 0A9 9 0 010 9z" fill="url(#paint0_linear)"/><path d="M11.334 12.139c-.068.182-1.111.861-1.984.861-1.294 0-2.348-.759-2.348-1.734 0-.903 1.28-1.315 2.603-1.817C11.205 8.889 12 7.893 12 6.53 12 4.909 10.735 4 8.83 4c-1.003 0-2.29.545-2.628.909l.594.616c.32-.172 1.147-.52 2.035-.52C10.168 5.005 11 5.87 11 6.53c0 .903-.59 1.462-1.941 1.978C7.4 9.139 6 9.763 6 11.182 6 12.674 7.038 14 9.35 14c.945 0 2.043-.545 2.65-1.212l-.666-.65z" fill="#fff"/><defs><linearGradient id="paint0_linear" x1="3.349" y1="3.122" x2="21.904" y2="24.434" gradientUnits="userSpaceOnUse"><stop stop-color="#1A1E21"/><stop offset="1" stop-color="#06060A"/></linearGradient></defs></svg>