<!-- by TradingView --><svg width="18" height="18" fill="none" xmlns="http://www.w3.org/2000/svg"><path d="M0 9a9 9 0 1118 0A9 9 0 010 9z" fill="#F0F3FA"/><path d="M7.938 4.058a5.154 5.154 0 00-3.11 2.166 4.815 4.815 0 00-.723 1.726c-.102.445-.135 1.229-.075 1.71.153 1.26.77 2.38 1.77 3.227.521.442 1.11.768 1.11.616 0-.021-.064-.098-.139-.174-.513-.503-.783-1.385-.675-2.205.144-1.091.585-1.82 1.446-2.388.162-.106.309-.195.327-.195.063 0 .024-.128-.132-.433-.3-.576-.408-.973-.408-1.497 0-.805.336-1.665.852-2.187.15-.15.168-.18.168-.299 0-.118-.006-.128-.081-.125-.048 0-.195.028-.33.058z" fill="#388CE0"/><path d="M10.988 4.379a.6.6 0 00.102.189c.267.384.408.799.429 1.274.027.577-.126 1.077-.408 1.33-.207.186-.387.192-.645.027-.183-.119-.204-.204-.08-.362.206-.266.332-.68.332-1.107 0-.443-.084-.69-.312-.903-.246-.229-.495-.296-.828-.217-.338.077-.656.446-.827.96a3.909 3.909 0 00-.162.989c.003.5.15 1.089.363 1.449.12.204.416.54.593.67a.56.56 0 01.123.11c0 .012-.063.043-.14.073-.576.217-1.155.866-1.413 1.583-.165.458-.225.83-.204 1.257.024.524.117.771.41 1.094.232.257.67.372 1.194.32.606-.063 1.071-.283 1.47-.7.174-.187.21-.208.243-.169.03.037.024.067-.039.177-.396.683-1.134 1.269-1.818 1.44-.15.036-.212.067-.212.1 0 .11.932-.042 1.496-.244a5.157 5.157 0 003.11-3.18c.198-.601.231-.839.234-1.586.003-.583-.006-.717-.066-1.013-.29-1.47-1.223-2.723-2.588-3.48-.24-.133-.357-.16-.357-.081z" fill="#094B89"/></svg>