<!-- by TradingView --><svg width="18" height="18" fill="none" xmlns="http://www.w3.org/2000/svg"><path fill="#0D3CA4" d="M0 0h18v18H0z"/><path d="M6.94 13.605c-1.587-.793-3.65-2.857-2.698-6.19.055-.194 1.427 1.507 2.063 2.699.844 1.582 1.153 3.75.635 3.491z" fill="#fff"/><path d="M11.86 4.876C9.162 3.13 6.622 4.4 5.829 5.194c-.381.761.317 1.587 1.27 1.587 2.856 0 7.577-.082 4.76-1.905zm.952 7.076c.508-.306.688-1.142.635-1.52-.952-.318-3.206-.89-3.968-.636-.952.318-1.904 1.746-.317 3.175 1.587 1.428 3.015-.635 3.65-1.019z" fill="#5492F6"/><path d="M13.828 10.35c.477-1.964.006-4.345-1.968-5.474-1.349-.77-5.238 1.067-5.238 2.698 0 .9 2.15 2.873 6.237 3.412.44.058.864-.204.97-.635zm-3.273 3.173c.6.5 2.416-1.187 2.892-2.14.131-.218-.95.203-1.905.794-.752.466-1.27 1.11-.987 1.346zM7.574 4.4c-.952-.26-2.539 1.27-3.015 2.222-.131.219 1.109-.044 2.063-.635.753-.466 1.722-1.377.952-1.587z" fill="#fff"/></svg>