<!-- by TradingView --><svg width="18" height="18" fill="none" xmlns="http://www.w3.org/2000/svg"><path d="M0 9a9 9 0 1118 0A9 9 0 010 9z" fill="#F0F3FA"/><path d="M5.876 7.313c.404-.639 1.008-1.098 1.577-1.087l.272-.283c.397-.626.052-1.305-.513-1.615-.565-.309-1.144-.134-1.542.49l-.229.362c.285.458.241 1.165-.163 1.806-.404.642-1.051 1.017-1.62 1.008l-.23.362c-.396.626-.258 1.391.307 1.7.565.31 1.35.05 1.748-.575l.09-.387c-.285-.457-.102-1.143.303-1.781z" fill="#1E90FF"/><path d="M5.28 10.98c-.405-.638-1.052-1.018-1.62-1.008l-.23-.362c-.397-.626-.259-1.391.306-1.7.565-.31 1.351-.05 1.749.575l.123.392c-.285.458-.136 1.135.27 1.776.404.642.974 1.091 1.543 1.081l.306.29c.396.626.082 1.272-.483 1.581-.565.31-1.175.17-1.572-.457l-.229-.362c.283-.457.24-1.167-.164-1.806z" fill="url(#paint0_linear)"/><path d="M9.882 10.98c-.405-.638-1.052-1.018-1.62-1.008v-.34c-.397-.626-.026-.838.54-1.147.564-.309.888-.626 1.284 0l.23.362c-.285.458-.242 1.165.163 1.806.405.642 1.052 1.018 1.62 1.008l.23.363c.397.626.259 1.39-.306 1.7-.565.31-1.31.07-1.707-.557l-.042-.373c.285-.457.016-1.175-.392-1.814z" fill="url(#paint1_linear)"/><path d="M12.758 11.043c.404-.637 1.051-1.018 1.62-1.007l.23-.363c.396-.626.143-.997-.422-1.306-.565-.31-1.236-.444-1.633.182l-.184.36c.285.458.196 1.166-.209 1.808-.405.641-1.051 1.018-1.62 1.007l-.23.362c-.396.626-.063 1.177.502 1.487.565.31 1.156.264 1.554-.362l.229-.362c-.288-.457-.241-1.168.163-1.806z" fill="url(#paint2_linear)"/><path d="M6.5 4a1.5 1.5 0 100 3 1.5 1.5 0 000-3z" fill="#1E90FF"/><path d="M6.498 11a1.5 1.5 0 10.004 3 1.5 1.5 0 00-.004-3z" fill="indigo"/><path d="M11.5 4c-.297 0-.587.086-.833.247-.247.16-.44.39-.553.657a1.433 1.433 0 00-.085.847c.058.284.2.545.41.75a1.533 1.533 0 001.635.318c.274-.111.508-.3.673-.54a1.441 1.441 0 00-.187-1.85A1.519 1.519 0 0011.5 4z" fill="#1E90FF"/><path d="M11.5 11a1.5 1.5 0 100 3 1.5 1.5 0 000-3z" fill="indigo"/><path d="M9.5 8a1.5 1.5 0 100 3 1.5 1.5 0 000-3zM13.5 8a1.5 1.5 0 100 3 1.5 1.5 0 000-3z" fill="#8B008B"/><path d="M4.5 7.5a1.5 1.5 0 100 3 1.5 1.5 0 000-3z" fill="#1E90FF"/><defs><linearGradient id="paint0_linear" x1="5.083" y1="10.03" x2="5.992" y2="11.705" gradientUnits="userSpaceOnUse"><stop offset=".21" stop-color="#1E90FF"/><stop offset="1" stop-color="indigo"/></linearGradient><linearGradient id="paint1_linear" x1="9.938" y1="9.891" x2="10.794" y2="11.463" gradientUnits="userSpaceOnUse"><stop stop-color="#8B008B"/><stop offset="1" stop-color="indigo"/></linearGradient><linearGradient id="paint2_linear" x1="-303.829" y1="1874.49" x2="-405.704" y2="2007.52" gradientUnits="userSpaceOnUse"><stop stop-color="#8B008B"/><stop offset="1" stop-color="indigo"/></linearGradient></defs></svg>